<svg width="37" height="37" viewBox="0 0 37 37" fill="none" xmlns="http://www.w3.org/2000/svg">
<path d="M30.8333 12.3333C27.4262 12.3333 24.6667 9.57375 24.6667 6.16667C24.6667 2.75958 27.4262 0 30.8333 0C34.2404 0 37 2.75958 37 6.16667C37 9.57375 34.2404 12.3333 30.8333 12.3333ZM18.5 23.7725C19.6871 23.7725 20.8742 23.3254 21.7683 22.4158L28.9679 15.2162C24.7592 14.3529 21.5833 10.6221 21.5833 6.15125C21.5833 5.62708 21.645 5.11833 21.7221 4.60958H7.70833C4.91792 4.60958 2.4975 6.105 1.14083 8.325L15.2317 22.4312C16.1258 23.3254 17.3129 23.7879 18.5 23.7879V23.7725ZM33.5467 15.0004L23.9421 24.605C22.4467 26.1004 20.4579 26.8558 18.4846 26.8558C16.5112 26.8558 14.5379 26.1004 13.0271 24.605L0.0770833 11.6242C0.0616667 11.8554 0 12.0867 0 12.3333V29.2917C0 33.5467 3.45333 37 7.70833 37H29.2917C33.5467 37 37 33.5467 37 29.2917L36.9692 13.0579C35.9825 13.9367 34.8262 14.5996 33.5467 15.0004Z" fill="#002F63"/>
</svg>
