<svg width="35" height="37" viewBox="0 0 35 37" fill="none" xmlns="http://www.w3.org/2000/svg">
<path d="M1.47748 27.75C2.75268 29.9632 5.58065 30.7236 7.79386 29.4484C7.79538 29.4475 7.79682 29.4467 7.79834 29.4458L8.48436 29.0496C9.77936 30.1575 11.2679 31.0168 12.875 31.5841V32.375C12.875 34.9293 14.9457 37 17.5 37C20.0543 37 22.125 34.9293 22.125 32.375V31.5841C23.7323 31.0159 25.2209 30.1557 26.5156 29.0465L27.2048 29.4443C29.4185 30.7214 32.2485 29.9622 33.5256 27.7484C34.8028 25.5347 34.0436 22.7047 31.8298 21.4276L31.1453 21.0329C31.4534 19.3563 31.4534 17.6375 31.1453 15.9608L31.8298 15.5662C34.0435 14.289 34.8028 11.4591 33.5256 9.2453C32.2485 7.03159 29.4186 6.27229 27.2048 7.54945L26.5188 7.94568C25.2225 6.83907 23.7329 5.98143 22.125 5.41587V4.625C22.125 2.0707 20.0543 0 17.5 0C14.9457 0 12.875 2.0707 12.875 4.625V5.41587C11.2677 5.9841 9.77907 6.84435 8.48436 7.95348L7.79523 7.55421C5.58145 6.27699 2.75153 7.03629 1.47438 9.25C0.197225 11.4637 0.956448 14.2937 3.17023 15.5709L3.85473 15.9655C3.54659 17.6421 3.54659 19.3609 3.85473 21.0376L3.17023 21.4322C0.962591 22.7128 0.205825 25.5372 1.47748 27.75ZM17.5 12.3334C20.9057 12.3334 23.6666 15.0943 23.6666 18.5C23.6666 21.9057 20.9057 24.6666 17.5 24.6666C14.0943 24.6666 11.3334 21.9057 11.3334 18.5C11.3334 15.0943 14.0943 12.3334 17.5 12.3334Z" fill="#002F63"/>
</svg>
