<svg width="37" height="37" viewBox="0 0 37 37" fill="none" xmlns="http://www.w3.org/2000/svg">
<path d="M19.7888 0.0447486C14.4362 -0.320626 9.18988 1.64037 5.40972 5.42825C1.62955 9.21304 -0.325284 14.4578 0.0462576 19.8166C0.724591 29.6124 9.37642 37 20.1712 37H29.2932C33.5436 37 37.0015 33.5421 37.0015 29.2917V19.0242C37 9.03575 29.4397 0.699957 19.7888 0.0447486ZM11.2403 19.6671L15.1484 23.5767C15.7512 24.1795 15.7512 25.1554 15.1484 25.7567C14.8478 26.0573 14.4531 26.2084 14.0585 26.2084C13.6638 26.2084 13.2691 26.0573 12.9685 25.7567L9.06038 21.847C8.18934 20.976 7.70988 19.8151 7.70988 18.5771C7.70988 17.3392 8.19088 16.1783 9.06038 15.3072L13.1242 11.2434C13.727 10.6406 14.7013 10.6406 15.3041 11.2434C15.9069 11.8447 15.9069 12.8205 15.3041 13.4233L11.2403 17.4872C10.639 18.0884 10.639 19.0658 11.2403 19.6671ZM27.9412 21.847L24.0315 25.7567C23.7309 26.0573 23.3362 26.2084 22.9415 26.2084C22.5469 26.2084 22.1522 26.0573 21.8516 25.7567C21.2488 25.1539 21.2488 24.1795 21.8516 23.5767L25.7613 19.6671C26.3625 19.0658 26.3625 18.0884 25.7613 17.4872L21.6974 13.4233C21.0946 12.8205 21.0946 11.8447 21.6974 11.2434C22.3002 10.6406 23.2745 10.6406 23.8773 11.2434L27.9412 15.3072C28.8122 16.1783 29.2917 17.3392 29.2917 18.5771C29.2917 19.8151 28.8107 20.976 27.9412 21.847Z" fill="#002F63"/>
</svg>
