<svg width="37" height="37" viewBox="0 0 37 37" fill="none" xmlns="http://www.w3.org/2000/svg">
<path d="M26.6862 23.125C32.614 23.125 35.5662 29.3364 36.872 33.4465C37.4332 35.2147 36.0688 37 34.1772 37H27.6035C23.9344 37 20.0417 33.8935 20.0417 30.0625C20.0417 26.2315 23.0171 23.125 26.6862 23.125ZM1.80683 29.4751C0.650583 30.6314 4.59452e-08 32.2008 4.59452e-08 33.835V37H3.16504C4.80075 37 6.36862 36.351 7.52487 35.1932L28.2295 14.4886L22.5099 8.769L1.80683 29.4751ZM35.816 1.184C34.2373 -0.394667 31.6766 -0.394667 30.0964 1.184L24.6898 6.59062L30.4094 12.3102L35.816 6.90358C37.3947 5.32492 37.3947 2.76421 35.816 1.184ZM1.184 6.90358C-0.394667 5.32492 -0.394667 2.76421 1.184 1.184C2.76421 -0.394667 5.32492 -0.394667 6.90358 1.184L15.9979 10.9227L10.2783 16.6423L1.184 6.90358Z" fill="#002F63"/>
</svg>
