<svg width="37" height="37" viewBox="0 0 37 37" fill="none" xmlns="http://www.w3.org/2000/svg">
<path d="M35.4583 16.9583C35.0494 16.9583 34.6573 16.7959 34.3682 16.5068C34.0791 16.2177 33.9166 15.8255 33.9166 15.4167C33.9134 12.1467 32.6129 9.01153 30.3007 6.69929C27.9884 4.38704 24.8533 3.0866 21.5833 3.08333C21.1744 3.08333 20.7823 2.92091 20.4932 2.63179C20.2041 2.34267 20.0416 1.95054 20.0416 1.54166C20.0416 1.13279 20.2041 0.740659 20.4932 0.451541C20.7823 0.162422 21.1744 -3.24682e-06 21.5833 -3.24682e-06C25.6707 0.00448547 29.5894 1.63018 32.4796 4.52039C35.3698 7.41061 36.9955 11.3293 37 15.4167C37 15.8255 36.8375 16.2177 36.5484 16.5068C36.2593 16.7959 35.8672 16.9583 35.4583 16.9583ZM30.8333 15.4167C30.8333 12.9634 29.8588 10.6106 28.124 8.87593C26.3893 7.14121 24.0366 6.16666 21.5833 6.16666C21.1744 6.16666 20.7823 6.32909 20.4932 6.61821C20.2041 6.90733 20.0416 7.29945 20.0416 7.70833C20.0416 8.11721 20.2041 8.50933 20.4932 8.79845C20.7823 9.08757 21.1744 9.25 21.5833 9.25C23.2188 9.25 24.7873 9.8997 25.9438 11.0562C27.1003 12.2126 27.75 13.7812 27.75 15.4167C27.75 15.8255 27.9124 16.2177 28.2015 16.5068C28.4906 16.7959 28.8828 16.9583 29.2916 16.9583C29.7005 16.9583 30.0926 16.7959 30.3818 16.5068C30.6709 16.2177 30.8333 15.8255 30.8333 15.4167ZM34.1988 34.1695L35.6017 32.5523C36.4946 31.6565 36.996 30.4432 36.996 29.1784C36.996 27.9135 36.4946 26.7002 35.6017 25.8044C35.5539 25.7566 31.8446 22.903 31.8446 22.903C30.9544 22.0556 29.7719 21.5837 28.5428 21.5855C27.3138 21.5872 26.1326 22.0623 25.2448 22.9122L22.3063 25.3882C19.9078 24.3955 17.729 22.9387 15.895 21.1016C14.061 19.2644 12.608 17.0831 11.6195 14.6828L14.0862 11.7537C14.9367 10.8659 15.4125 9.68456 15.4145 8.45512C15.4165 7.22568 14.9446 6.04276 14.097 5.15225C14.097 5.15225 11.2403 1.44762 11.1925 1.39983C10.3129 0.514525 9.12028 0.0108224 7.87238 -0.00244712C6.62447 -0.0157166 5.42144 0.462513 4.52322 1.32891L2.7503 2.87058C-7.72378 15.022 14.8308 37.4024 27.3831 37C28.6506 37.0073 29.9067 36.7607 31.0774 36.2745C32.248 35.7884 33.3093 35.0726 34.1988 34.1695Z" fill="#002F63"/>
</svg>
